<svg xmlns="http://www.w3.org/2000/svg" xml:space="preserve" fill-rule="evenodd"
  stroke-linejoin="round" stroke-miterlimit="2" viewBox="0 0 410 111" fill="currentColor">
  <path d="M47 0v81.7H25.6l-.8-.1-.8-.1-.7-.1-.8-.1-.7-.2-.7-.1-.7-.1-.7-.2-.7-.2-.7-.2-.7-.2-.7-.3-1.3-.5-.6-.3-.6-.2-.6-.4-.6-.3-.6-.3-.6-.4-.6-.4-.5-.4-.6-.4-.5-.4-.5-.4-.5-.5-.5-.5-1-1L7 73l-.5-.5L6 72l-.4-.6-.4-.5-.4-.6-.4-.5-.3-.6-.4-.6-.3-.5-.3-.6-.3-.6-.3-.6-.2-.7L2 65l-.2-.6-.2-.7-.2-.6-.2-.7-.2-.6V61l-.2-.7-.1-.7-.1-.7-.1-.7v-.7l-.1-.8-.1-.7v-5l.1-.6v-.8l.2-.6.1-.7L1 47l.3-1.3.2-.7.2-.6.3-.6.2-.7.3-.6.3-.6.2-.6.4-.6.3-.6.3-.6.3-.5.4-.6.4-.5.4-.6.4-.6.5-.5.4-.5.4-.5.5-.5.5-.5.5-.5.5-.5.5-.4.5-.5.6-.4.5-.4.6-.4.5-.4.6-.4.5-.3.6-.3.6-.4.6-.3.6-.3.6-.2.6-.3 1.3-.5.6-.2.7-.2.6-.2.7-.1.6-.2.7-.1.6-.1.7-.1.7-.1h.7l.7-.1h.7l.7-.1h11V0h9Zm-9 35.6H25.9l-.6.1h-.5l-.5.1-.5.1-.5.1-.5.1-.5.1-.4.1-.5.2-.4.1-.5.1-.4.2-.8.3-.4.2-.4.2-.8.4-.4.3-.4.2-.3.2-.4.3-.3.2-.4.3-.3.3-.4.3-.3.3-.3.3-.3.3-.3.3-.6.7-.3.4-.2.3-.2.4-.3.3-.2.4-.3.3-.2.4-.1.4-.2.4-.2.4-.2.3-.2.4-.1.4-.1.5-.2.4-.1.4-.1.4-.1.5-.1.4v.4l-.2.5v.5l-.1 1v.4l-.1.5v3.1l.1.5v.5l.2.5v.5l.1.5.1.5.1.5.2.4v.5l.2.4.2.5.1.4.2.4.2.4.2.4.2.4.2.4.2.4.2.4.3.4.3.4.2.3.3.4.3.3.3.4.3.3.3.4.3.3.4.3.3.3.4.3.3.3.4.3.4.3.3.2.4.3.4.2.4.3.5.2.4.2.4.2.5.2.4.2.5.1.4.2.5.2.5.1.5.1.5.2h.5l.5.2h.6l.5.1.5.1H27l.5.1h10.6v-37Zm27.6 46-8.7-.4v-40l.2-.8.1-.8.2-.9.2-.8.3-.8.3-.8.4-.8.4-.8.4-.7.5-.7.5-.7.6-.6.6-.7.6-.6.7-.6.6-.6.7-.5.7-.4.8-.5.7-.4.8-.4.7-.3.8-.3.8-.2.8-.2.8-.2.9-.2h1.7l.8-.1h8.7V35h-10l-.6.2h-.5l-.5.2-.4.2-.5.1-.4.2-.4.3-.3.2-.4.2-.3.3-.3.3-.3.3-.3.4-.3.4-.2.4-.3.4-.2.4-.2.5-.2.4-.4 1-.1.4-.1.5-.1.5-.1.5v.6l-.1.5v37.3Zm33.8-43-.4.3-.4.3-.4.4-.4.4-.4.4-.3.4-.4.5-.3.4-.1.2h33v9.5h-37v.5l-.1.2v4.2l.1.5v.5l.2 1 .2.5v.4l.2.5.1.4.1.5.2.4.2.4.1.5.2.4.2.4.2.4.2.4.2.3.2.4.3.4.2.3.3.4.3.3.2.4.3.3.3.4.3.3.4.3.3.3.3.3.4.3.3.3.4.2.4.3.3.2.4.3.4.2.4.2.4.2.4.2.5.2.4.2.4.2.5.2.5.1 1 .3.4.1.5.2h.5l.5.2h.5l.6.1h.5l.6.1h.6l.5.1h19v9.2h-20.9l-.8-.1-.8-.1-.7-.1-.8-.1-.7-.2-.7-.1-.8-.1-.7-.2-.6-.2-.7-.2-.7-.2-.7-.3-.6-.2-.7-.3-.6-.2-.7-.3-.6-.4-.6-.3-.6-.3-.5-.4-.6-.3L93 76l-.6-.4-.5-.5-.5-.4-.5-.5-1-1-.4-.4-.5-.5-.4-.6-.4-.5-.4-.5-.4-.6-.4-.5-.3-.6-.4-.5-.3-.6-.3-.6-.3-.6-.3-.6-.2-.7-.3-.6-.2-.6-.3-.6-.2-.7-.2-.7-.1-.6-.2-.7-.1-.7-.2-.6v-.8l-.2-.7v-.7l-.1-.7V56l-.1-.7V51l.2-.7v-.7l.2-.7v-.6l.2-.7.2-.7.1-.7.4-1.3.2-.6.2-.6.3-.7.2-.6.3-.6.3-.6.3-.6.4-.6.6-1.1.4-.6.4-.5.4-.6.4-.5.4-.5.5-.6.5-.5.4-.5.5-.5.5-.5.5-.4.5-.5.6-.4.5-.5.5-.4.6-.3.5-.4.6-.4.6-.4.6-.3.5-.3.6-.3.7-.3.6-.3.6-.2.6-.2.7-.3.6-.2.6-.2.7-.2.6-.1.7-.2.7-.1.7-.1.7-.1.6-.1h.7l.8-.1h.7l.7-.1h19.4v9.4H107l-.5.2h-.6l-.6.1-.5.1-.5.2-.5.2-.6.1-.5.2-.5.2-.5.2-.5.3-.5.3-.5.2-.4.4-.5.3Zm47.8 31 .3.5.3.4.3.5.3.4.4.4.3.3.4.3.3.3.4.2.4.3.4.2.4.1.5.2.4.1.5.1h.5l.6.1h1.6l1-.2h.5l.5-.2.5-.2.4-.2.8-.4.4-.3.4-.3.4-.3.4-.3.3-.4.4-.4.3-.5.3-.4.4-.5.5-1 .2-.5.2-.5.2-.6.2-.6.1-.6.1-.6.1-.7.1-.6v-1.5l.1-.8V26h9.2v37l.2.8v.7l.2.7.1.7.2.7.2.6.2.6.2.6.2.5.3.5.3.5.3.4.3.5.3.4.3.3.4.4.4.3.4.3.4.2.4.3.4.2.5.2.4.2.5.1.5.1.5.1.6.1h2.4l.4-.1.4-.2.8-.2.5-.2.4-.2.4-.3.4-.2.4-.3.8-.7.4-.4.4-.4.4-.4.4-.5.4-.4.3-.4.2-.5.3-.4.5-.8.1-.5.2-.4.1-.4v-.5l.2-.4V26h9.4v39l-.2 1-.1 1-.2 1-.3 1-.3 1-.3.8-.4 1-.5.8-.5.9-.5.8-.6.8-.6.8-.6.7-.7.7-1.5 1.3-.8.6-.8.6-.7.5-.8.5-.9.4-.8.4-.8.3-1 .3-.8.2-.9.2-.9.2-.9.1h-.9l-.9.1h-1.3l-1.3-.2h-.6l-.6-.2-.6-.1-.6-.1-.6-.2-.6-.2-.5-.2-.6-.3-.6-.2-.5-.3-.5-.3-.6-.3-.5-.3-.5-.4-.5-.3-.5-.4-.4-.4-.5-.4-.4-.4-.4-.5-.4-.4-.4-.5-.2-.2-.2.2-.3.5-.5.5-.4.4-.4.4-.5.5-.5.4-.5.3-.5.4-.5.3-.5.4-.6.3-.5.3-.6.2-.6.3-.5.2-.6.2-.6.2-.6.2-.6.1-.6.1-.6.2h-.7l-.6.1h-.6l-1.3.1h-1l-1.2-.1-1-.1-1-.2-1-.2-1-.3-1-.4-.9-.4-.9-.4-.8-.5-.9-.6-.7-.6-.8-.6-.7-.7-.7-.8-.6-.8-.6-.8-.5-.8-.5-.8-.4-.9-.4-.8-.4-1-.3-.9-.3-1-.2-1-.3-1-.1-1-.2-1-.1-1-.1-1.2V26h9.2v36l.1.8v.7l.2.7v.7l.2.6.2.7.1.6.2.6.3.6.2.5.2.5.3.6Zm61 41.4V26h21.4l.8.2h.8l.7.1.8.2.7.1.7.1.7.2.7.2.7.2.7.2.7.2.7.3.6.2.7.3.6.3.7.3.6.3.6.3.6.4.5.4.6.3.6.4.5.4.6.5.5.4.5.5.5.5.5.4.5.5.8 1 .5.5.4.5.4.5.3.6.4.5.3.6.4.5.3.6.3.6.3.6.2.6.3.6.2.6.2.6.3.6.2.7.3 1.3.3 1.4v.6l.2.7v.7l.2.7v1.5l.1.7v4.3l-.1.7-.1.7-.2 1.4-.2.7-.1.6-.2.7-.2.6-.2.7-.2.6-.2.6-.2.7-.3.6-.2.6-.3.6-.3.6-.4.6-.3.6-.4.5-.3.6-.4.6-.4.5-.4.5-.4.6-.5.5-.4.5-.5.5-.5.5-.5.5-.5.5-.5.4-.5.5-.5.4-.6.4-.5.4-.6.4-.5.4-.6.3-.6.3-.6.3-.6.4-.5.2-.7.3-.6.3-.6.2-.6.2-.7.2-.6.2-1.3.4-.7.1-.7.2h-.6l-.7.2h-.7l-.7.1h-.7l-.7.1H217V111h-8.9Zm8.8-38.8h11.5l.5-.1h.5l.6-.1.5-.1h.5l.5-.1.5-.2h.4l.5-.2.5-.1.4-.1.5-.2.4-.2h.4l.4-.3.5-.2.4-.2.4-.2.4-.2.4-.2.3-.2.4-.3.4-.2.3-.3.4-.3.3-.2.3-.3.4-.3.3-.3.3-.4.3-.3.3-.3.3-.4.3-.3.2-.4.3-.3.2-.4.3-.3.2-.4.2-.4.2-.4.2-.3.2-.4.2-.4.1-.4.2-.5.1-.4.2-.4v-.4l.2-.5v-.4l.2-.4v-.5l.1-.5.1-.4v-.5l.1-.5v-1l.1-.5v-2.6l-.1-.5-.1-.5v-.5l-.1-.5-.1-.4-.1-.5-.1-.4-.2-.5v-.5l-.2-.4-.2-.4-.1-.4-.2-.5-.2-.4-.2-.4-.2-.4-.2-.4-.2-.4-.2-.4-.3-.4-.3-.3-.2-.4-.3-.4-.3-.3-.3-.4-.3-.3-.3-.4-.7-.7-.3-.3-.3-.3-.4-.3-.4-.3-.4-.2-.3-.3-.4-.3-.4-.2-.4-.3-.4-.2-.4-.2-.5-.2-.4-.2-.4-.2-.5-.1-.5-.2-.4-.2-.5-.1-.5-.1-.5-.2-.5-.1h-.5l-.5-.2h-.6l-.5-.1h-.6l-.5-.2H217v37.4Zm44.4 9.3V.2h9v81.3h-9Zm53.2-53.8.8.3 1.5.8.8.5.7.5.7.5.6.6.7.5.6.7.6.7.6.7.5.7.4.8.4.8.4.8.3.8.3.9.2.9.2.9.2.9.1 1.9v38.8H295l-1-.2-.8-.1-.8-.3-.9-.2-.8-.4-.8-.3-.8-.4-.8-.5-.8-.5-.7-.6-.7-.6-.7-.6-.6-.7-.7-.7-.6-.8-.5-.8-.5-.8-.5-.8-.5-.9-.4-.8-.4-1-.3-.8-.3-1-.2-1-.3-.9-.1-1-.2-1v-1l-.1-1v-3l.2-1 .1-1 .3-1 .3-1 .3-.8.4-1 .4-.8.5-.9.5-.7.6-.8.6-.8.7-.7.7-.7.7-.7.8-.7.8-.6.8-.5.9-.5.8-.5 1-.4.9-.4.9-.3 1-.4 1-.2 1-.2.9-.2 1-.2h1l1.1-.1h16.7l-.1-.4-.1-.4-.2-.4-.1-.4-.2-.3-.2-.4-.2-.3-.2-.4-.2-.3-.3-.3-.3-.3-.2-.3-.3-.3-.3-.3-.3-.2-.3-.2-.3-.2-.4-.1-.3-.2-.3-.2h-.4l-.3-.2h-.4l-.3-.1h-.8l-.4-.1h-25.3v-9.4h25.3l.8.1 1 .2.8.1.8.2.9.3.8.2.8.4Zm1.7 23.7H298l-.5.1-.6.1-.5.1-.5.2-.5.2-.5.1-.5.3-.4.2-.5.2-.5.3-.4.4-.5.3-.4.4-.5.4-.4.4-.4.4-.3.4-.3.4-.4.5-.2.4-.3.5-.2.4-.2.5-.1.5-.2.5v.5l-.2.5V64l.1.6.1.6.1.5.2.5.1.5.2.4.2.5.3.4.2.4.3.4.3.4.3.3.3.4.4.4.4.3.4.3.4.2.4.3.5.2.5.2.6.2.5.2.7.2h.6l.6.2h.7l.8.1h18.1V51.5ZM374.9 35h-30.4l-.3.1-.4.1-.4.2-.3.2-.4.2-.3.2-.3.2-.2.3-.1.2-.1.3-.2.3v.3l-.1.3v1.5l.1.3.1.3.1.2h.1l.1.2.2.1.1.1h.2l.2.1.2.1h.3l.3.1h.4l.4.1h.4l.5.1h.5l.5.1h14.2l1 .1 1 .1 1 .2 1 .2 1 .2 1 .3.9.3.9.4.8.4.9.5.8.5.8.5.8.6.8.7.7.6.7.7.6.8.6.8.6.7.5.8.5.9.4.8.4 1 .3.8.3 1 .2.9.3 1 .1 1 .1 1v1l.1 1v2l-.2 1-.2 1-.2 1-.2 1-.3 1-.3 1-.4.9-.5.9-.4.8-.6.9-.5.8-.6.8-.7.8-.7.8-.7.7-.7.7-.8.6-.8.6-.8.5-.8.6-.9.4-.8.4-.9.4-.9.3-.9.2-1 .3-.9.1-1 .2h-29.2v-9.3h29.1l.5-.1.4-.1.5-.1.5-.2.4-.1.4-.2.5-.2.4-.2.4-.3.4-.3.4-.3.4-.3.4-.4.4-.4.4-.4.3-.4.3-.5.3-.4.3-.4.2-.5.2-.5.2-.4.2-.5.1-.5.2-.5v-.5l.2-.5V60l-.1-.5-.1-.6-.2-.5-.1-.5-.4-1-.2-.4-.3-.4-.3-.5-.3-.4-.7-.9-.4-.4-.4-.4-.4-.4-.4-.3-.4-.3-.5-.3-.5-.2-.4-.3-.5-.2-.5-.2-.5-.1-.5-.2h-.5l-.5-.2H344l-.6-.1h-.6l-.5-.1-.6-.1-.5-.2-.6-.1-.5-.2-1-.5-.5-.3-.5-.3-.5-.4-.4-.4-.4-.4-.5-.4-.4-.4-.3-.5-.7-1-.3-.5-.3-.5-.3-.5-.2-.6-.4-1.1-.1-.6-.2-.6v-.6l-.2-.6V36l.2-.6.1-.6.2-.6.2-.5.2-.6.3-.5.3-.6.3-.5.3-.4.8-1 .4-.4.5-.5.4-.4.5-.4.5-.3.6-.4.5-.3.5-.3.5-.2.6-.3.6-.2.6-.1.5-.2.7-.1.6-.1h.6l.6-.1h29.9V35Zm9 27.4V.2h9.1v26.2h17v9.5h-17v27.8l.1.7v.6l.1.5v.6l.2.5.1 1 .1.4.2.4.1.4.1.4.2.3.1.4.2.2.2.4.2.3.2.3.3.3.3.2.2.3.3.2.3.2.4.1.3.2h.4l.4.2h.5l.4.1h.6l.5.1h9.6v8.7H397l-.7-.2-.7-.1-.7-.2-.7-.2-.6-.3-.7-.2-.6-.3-.6-.3-.6-.4-.7-.4-.5-.4-.6-.5-.6-.4-.3-.4-.4-.3-.3-.4-.3-.4-.3-.3-.3-.4-.2-.4-.3-.5-.2-.4-.2-.4-.2-.5-.2-.5-.2-.4-.2-.5-.1-.5-.1-.5-.2-.5v-.6l-.2-.5V69l-.2-1-.1-.7v-.5l-.1-.6v-.6l-.1-.6v-1.9l-.1-.7Z"/>
</svg>