<svg xmlns="http://www.w3.org/2000/svg" xml:space="preserve" fill-rule="evenodd" stroke-linejoin="round" stroke-miterlimit="2" viewBox="0 0 200 200" fill="currentColor">
  <path d="m121 161.6 9.6-4.3a73.6 73.6 0 0 0 16.7-11.5l4.6-4.9 4-5.3c1.1-1.8 2.3-3.7 3.3-5.7a51.4 51.4 0 0 0 4.7-12.3c.5-2 1-4.2 1.2-6.5l.5-6.8-.5-6.8a80 80 0 0 0-1.2-6.6l-2-6.3c-.8-2-1.6-4-2.7-6-1-2-2.2-3.8-3.3-5.7l-4-5.3-4.6-4.8a53.4 53.4 0 0 0-5-4.3l-5.6-3.9-4-2.3-11.8-5.2v114.5ZM78.8 38.1l-9.6 4.1a83.4 83.4 0 0 0-16.8 11.6L48 58.7 44 64c-1.2 1.8-2.2 3.7-3.4 5.7l-2.6 6a94 94 0 0 0-2 6.3 70 70 0 0 0-1.3 6.6l-.4 6.8.4 6.7c.3 2.3.8 4.5 1.3 6.6l2 6.3 2.6 6 3.3 5.7L48 132l4.5 4.9 5 4.2a58 58 0 0 0 5.7 3.9l3.9 2.3c3.9 2 8 3.7 11.8 5.4V38.1Z"/>
  <path d="M87.6 174.8c-3.6-.7-7-1.6-10.5-2.7l-3.6-1.3c-2.8-1.1-5.3-2.4-8-3.7l-4.7-2.8L56 161l-4.3-3.7-4-3.8-3.9-4.3-3.5-4.6-3-4.7-2.8-5.1-2.4-5.4-2-5.6-1.6-5.7-1-5.8-.7-6-.3-6.2.3-6.2.7-6.2 1-5.9 1.6-5.7 2-5.5 2.4-5.2 2.8-5.1 3-5 3.5-4.5 3.8-4.3 4.1-3.8L56 39l4.8-3.3 4.8-2.9 5.1-2.5 8.1-3.2v-25l-8.7 2.7L66.2 6l-3.7 1.6-3.6 1.6-3.6 1.8-3.6 1.8-3.3 2.1-3.4 2.2-3.2 2.3-6.2 5-5.8 5.4-5.3 6-4.8 6.4-2.2 3.3-2 3.3-2 3.6-2 3.6-1.7 3.7-1.5 3.6-1.4 4L5.6 71l-1 4-1 4-.8 4-.5 4.1-.4 4.3-.3 4.3v9.3l.4 5.1.7 5 .7 4.9 1.1 4.9 1.4 4.7 1.6 4.6 1.7 4.6 2 4.4 2.2 4.3 2.4 4.2 2.4 4 2.9 4 3 3.7 3 3.6 3.3 3.5 3.3 3.4 3.6 3.1 3.7 3 4 2.7 3.9 2.7L53 188l4.2 2.2 4.4 2 4.5 1.8 4.5 1.6 4.7 1.3L80 198l4.8 1 5 .6c4.2.3 8.5.6 12.8.5l9.5-.7v-174l6 1.2 6.5 2L131 31l6 3 5.7 3.7 5.3 4.1 5 4.5 4.4 5 4 5.4 3.5 5.7 3.2 6.2 1.2 3.2 1.2 3.3 1 3.4 1 3.3.6 3.6.6 3.5.4 3.7.2 3.8v6.8l-.5 6.2-1 5.8-1.3 5.9-1.9 5.5-2.2 5.6-2.6 5-3.2 5.1-3.2 4.6-3.8 4.5-4 4.1-4.4 3.8-4.6 3.5-5 3-5 2.7-5.3 2.4-5.4 1.9.1 25 8.8-2.6 3.7-1.3 3.8-1.6 3.7-1.6 3.6-1.7 3.4-2 3.5-2 3.3-2 3.2-2.4 6.2-5 5.7-5.5 5.3-5.9 4.9-6.3 2.1-3.3 2.2-3.4 1.9-3.5 1.9-3.6 1.7-3.7 1.6-3.8 1.4-3.8 1.2-3.8 1.1-4 1-4 .7-4 .5-4.1.5-4.3.3-4.1.1-4.5-.1-5-.5-5.1-.6-5-.8-4.9-1-4.9-1.5-4.7-1.6-4.6-1.7-4.6-2-4.3-2.2-4.4-2.3-4.2-2.5-4.1-2.8-3.8-3-3.8-3.1-3.7-3.1-3.4L166 26l-3.6-3.1-3.7-2.9-4-2.9-3.8-2.5-4.3-2.5-4.2-2.3-4.4-1.9-4.5-1.9-4.5-1.5-4.7-1.3-4.7-1.1-4.8-1-5-.6A138 138 0 0 0 96.7 0l-9.1.8v174Z"/>
</svg>
