<svg xmlns="http://www.w3.org/2000/svg" xml:space="preserve" fill-rule="evenodd"
  stroke-linejoin="round" stroke-miterlimit="2" clip-rule="evenodd" viewBox="0 0 1072 240"
  fill="currentColor">
  <path d="m128.07 173.4 10.37-4.6a67.86 67.86 0 0 0 6.58-3.68 65.35 65.35 0 0 0 6.01-4.14c1.81-1.53 3.68-3.06 5.33-4.6a82.98 82.98 0 0 0 9.3-10.82c1.19-2.04 2.49-4.09 3.51-6.24 1.2-2.1 1.99-4.25 2.84-6.4a77.68 77.68 0 0 0 2.15-6.75c.51-2.27 1.02-4.6 1.36-7.03l.51-7.2-.51-7.37c-.34-2.27-.85-4.76-1.36-7.03a77.68 77.68 0 0 0-2.15-6.75c-.85-2.15-1.65-4.3-2.84-6.4-1.02-2.16-2.32-4.2-3.51-6.24a122 122 0 0 0-4.43-5.61c-1.47-1.7-3.17-3.4-4.87-5.22-1.65-1.53-3.52-3.06-5.33-4.6l-6.01-4.13-4.2-2.5-12.75-5.6v122.9ZM82.94 40.9l-10.37 4.42a61.62 61.62 0 0 0-6.58 3.69 64.02 64.02 0 0 0-6.07 4.14c-1.81 1.53-3.68 3.06-5.33 4.59-1.7 1.64-3.34 3.51-4.87 5.21-1.47 1.82-3.06 3.8-4.37 5.67-1.19 1.99-2.38 3.97-3.51 6.13a92.15 92.15 0 0 0-2.9 6.4c-.79 2.33-1.47 4.48-2.15 6.75-.5 2.32-1.02 4.76-1.36 7.03-.17 2.5-.34 4.93-.45 7.37.11 2.5.28 4.82.45 7.26.34 2.43.85 4.76 1.36 7.03.68 2.32 1.36 4.48 2.16 6.74.85 2.16 1.87 4.31 2.89 6.47 1.13 2.15 2.32 4.13 3.51 6.12 1.3 1.81 2.9 3.8 4.37 5.67 1.53 1.64 3.17 3.51 4.87 5.21 1.82 1.53 3.52 3.07 5.33 4.6a76.63 76.63 0 0 0 6.07 4.13l4.2 2.44c4.19 2.16 8.56 3.97 12.75 5.84V40.91Z"/>
  <path d="M92.18 187.51a83.11 83.11 0 0 1-11.17-2.9l-3.85-1.35c-3-1.2-5.73-2.55-8.56-3.91l-5.16-3.07-5.05-3.57-4.7-3.91-4.31-4.08-4.03-4.65-3.85-4.93-3.18-5.1-3-5.45-2.55-5.78-2.16-5.95-1.7-6.13-1.13-6.29-.68-6.46-.34-6.63.34-6.64.68-6.63 1.13-6.24 1.7-6.12 2.16-5.95 2.55-5.62 3-5.44 3.18-5.27 3.85-4.93 4.03-4.65 4.3-4.08 4.71-3.91 5.05-3.58 5.16-3.06 5.55-2.72 8.68-3.4V2.24l-9.36 2.89-4.2 1.36-4.02 1.7-3.85 1.7-3.86 1.87-3.85 2.04-3.52 2.21-3.68 2.38-3.35 2.39-6.69 5.44L30.27 32l-5.67 6.46-5.21 6.8-2.33 3.58-2.2 3.57-2.16 3.8-2.04 3.91-1.82 3.91-1.7 3.91-1.47 4.26-1.36 4.08-1.14 4.25-1.02 4.42-.85 4.25-.5 4.37-.52 4.6-.28 4.58v10.04l.45 5.44.68 5.27.85 5.28 1.2 5.27 1.47 5.1 1.7 4.93 1.81 4.93 2.21 4.77 2.33 4.59 2.5 4.48 2.66 4.42 3.06 4.08 3.17 4.08 3.35 3.92 3.51 3.74 3.52 3.57 3.85 3.4 4.03 3.23 4.14 2.9 4.2 2.88 4.53 2.56 4.53 2.38 4.65 2.04 4.88 2.04 4.87 1.64 5 1.36 5.04 1.2 5.16 1.01 5.38.68c4.48.34 9.02.69 13.78.52 3.34-.18 6.86-.35 10.2-.69V27.07l6.35 1.36 7.03 2.04 6.86 2.72 6.35 3.23 6.24 3.91 5.67 4.43 5.21 4.76 4.82 5.5 4.37 5.78 3.68 6.12 3.35 6.64 1.36 3.4 1.3 3.57 1.02 3.57 1.02 3.57.63 3.91.68 3.69.5 3.91.18 4.08v7.32l-.51 6.63-1.02 6.3-1.48 6.29-2.04 5.95-2.32 5.95-2.84 5.44-3.34 5.45-3.52 4.93-4.02 4.82-4.37 4.42-4.65 4.08-4.87 3.74-5.39 3.23-5.33 2.9-5.67 2.55-5.9 2.04.18 26.81 9.41-2.89 3.97-1.3 4.02-1.7 4.03-1.7 3.85-1.87 3.69-2.04 3.68-2.22 3.52-2.2 3.51-2.56 6.52-5.27 6.18-5.95 5.73-6.3 5.16-6.8 2.38-3.57 2.32-3.57 1.99-3.8 2.04-3.91 1.81-3.91 1.7-4.09 1.48-4.08 1.36-4.08 1.19-4.25.96-4.42.85-4.26.51-4.42.51-4.59.34-4.42.17-4.76-.17-5.45-.5-5.44-.69-5.22-.85-5.27-1.13-5.27-1.53-5.1-1.65-4.93-1.87-4.94-2.15-4.59-2.38-4.76-2.5-4.48-2.66-4.42-3-4.08-3.18-4.09-3.35-3.9-3.34-3.75-3.69-3.57-3.85-3.4-4.03-3.06-4.2-3.07-4.19-2.72-4.53-2.72-4.48-2.38-4.7-2.04-4.88-2.04-4.82-1.7-5.05-1.36-4.99-1.2-5.21-1.01-5.33-.68c-4.7-.34-9.58-.63-14.29-.51-3.34.17-6.57.5-9.75.85V187.5Zm253.87-169.6v163.56h-38.16l-1.59-.06-1.58-.05-1.59-.12-1.53-.11-1.53-.17-1.48-.17-1.53-.23-1.47-.28-1.42-.28-1.41-.29-1.42-.34-1.36-.4-1.42-.4-1.3-.45-1.36-.45-2.61-1.02-1.25-.57-1.25-.56-1.19-.63-1.24-.68-1.14-.68-1.19-.73-1.13-.74-1.14-.8-1.07-.79-1.08-.85-1.02-.85-1.02-.9-1.02-.97-1.93-1.93-.9-1.02-.86-.96-.85-1.08-.85-1.02-.8-1.08-.73-1.13-.74-1.08-.73-1.13-.68-1.2-.63-1.13-.62-1.19-.57-1.24-.56-1.2-.51-1.24-.52-1.25-.45-1.3-.45-1.25-.4-1.3-.4-1.37-.34-1.3-.28-1.36-.28-1.36-.29-1.42-.22-1.42-.17-1.36-.17-1.47-.12-1.42-.11-1.47-.06-1.48-.05-1.47v-2.95l.05-1.41.06-1.42.11-1.42.12-1.36.17-1.42.22-1.36.23-1.3.57-2.72.68-2.61.4-1.25.4-1.3.44-1.25.52-1.25.5-1.24.57-1.2.57-1.24.62-1.2.63-1.13.68-1.19.68-1.13.73-1.13.8-1.08.8-1.14.79-1.07.9-1.02.85-1.08.91-1.02.96-1.02.97-.96.96-.97 1.02-.96 1.02-.91 1.08-.9 1.08-.86 1.07-.85 1.08-.8 1.08-.73 1.13-.74 1.14-.73 1.19-.63 1.13-.68 1.19-.56 1.19-.63 1.25-.5 1.19-.52 2.5-1.02 1.3-.4 1.3-.4 1.25-.33 1.36-.34 1.3-.28 1.36-.29 1.3-.23 1.37-.22 1.42-.17 1.36-.12 1.41-.1 1.42-.07 1.42-.05h22.05V17.9h17.92Zm-17.92 71.26h-20.18l-1.2.06h-1.07l-1.08.06-1.07.05-1.08.12-1.02.11-1.02.11-1.02.17-.97.17-.96.23-.96.17-.91.23-.9.28-.91.28-.91.29-.85.28-1.7.68-.8.4-.79.4-1.59.79-.73.45-.74.46-.74.5-.74.52-.68.5-.68.57-.68.51-.68.63-.62.56-.62.63-.63.68-.62.62-1.13 1.36-.57.68-.51.68-.46.74-.5.68-.46.74-.45.73-.4.74-.4.74-.4.74-.33.79-.34.8-.34.79-.29.79-.28.85-.28.8-.23.84-.23.86-.22.9-.17.85-.17.91-.17.9-.12.91-.23 1.93-.05.97-.06.96v4.14l.06 1.07.11 1.08.06 1.02.11 1.02.17.97.17 1.02.17.96.17.96.23.91.28.9.23.92.28.9.34.91.29.85.34.85.4.8.33.84.46.8.4.8.45.79.45.73.51.8.51.73.51.74.57.74.57.68.56.68.63.68.68.68.62.68.68.62.68.63.74.62.68.57.73.56.8.57.74.51.79.51.8.46.79.45.85.45.85.46.85.4.9.33.91.4.9.34.92.28.96.34.96.29 1.02.22.97.29 1.08.22 1.02.17 1.07.17 1.08.17 1.08.17 1.13.12 1.13.05 1.14.12 1.19.05h19.84V89.17Zm55.16 92.13-17.51-.85v-78.12l.17-1.82.17-1.7.28-1.7.4-1.7.45-1.64.57-1.65.62-1.59.74-1.53.79-1.53.9-1.41.97-1.42 1.02-1.42 1.14-1.3 1.19-1.3 1.24-1.2 1.3-1.19 1.37-1.13 1.36-1.02 1.42-.97 1.47-.85 1.47-.85 1.54-.73 1.53-.68 1.53-.57 1.58-.51 1.65-.4 1.64-.34 1.7-.28 1.65-.17 1.75-.12 1.65-.05h17.29v18.37h-16.38l-1.3.05-1.2.06-1.13.11-1.08.17-1.02.23-.96.28-.91.29-.9.34-.8.4-.8.45-.68.45-.73.51-.63.57-.62.56-.57.63-.62.74-.51.79-.57.8-.5.84-.46.85-.4.85-.4.91-.68 1.82-.28.96-.23 1.02-.22 1.02-.17 1.02-.12 1.08-.11 1.07-.06 1.14v73.36Zm67.53-86.17-.86.62-.85.74-.79.73-.8.74-.73.8-.68.84-.74.91-.62.9-.17.3h65.93v19.15h-74.04l-.05.29v.56l-.06.57-.06.57v1.02l-.05.51v2.04l.05 1.08.06 1.07.06 1.08.1 1.02.12 1.02.12.97.34 1.92.22.97.23.9.23.91.22.91.29.9.28.86.34.85.34.85.34.8.4.78.4.8.39.8.45.73.46.74.45.73.51.74.51.74.57.68.5.68.63.68.57.68.62.62.68.63.63.62.68.62.73.57.68.57.74.5.74.52.74.5.79.52.8.45.79.45.79.4.85.4.85.4.85.4.9.33.92.34.9.29 1.93.56.96.29 1.02.22.97.23 1.08.17 1.02.17 1.07.17 1.08.11 1.13.12 1.14.11 1.13.06 1.14.05 1.19.06h35.54v18.31h-36.96l-1.59-.05-1.59-.06-1.58-.11-1.53-.12-1.6-.17-1.47-.22-1.53-.17-1.47-.29-1.42-.28-1.47-.29-1.42-.34-1.36-.4-1.42-.39-1.3-.45-1.36-.46-1.3-.45-1.31-.57-1.3-.5-1.25-.63-1.19-.62-1.25-.63-1.19-.68-1.13-.73-1.14-.74-2.26-1.59-1.08-.8-1.02-.9-1.02-.9-1.02-.91-1.93-1.93-.9-.97-.91-1.02-.85-1.02-.86-1.07-.79-1.08-.74-1.08-.79-1.08-.68-1.13-.68-1.13-.68-1.2-.62-1.18-.57-1.2-.57-1.19-.5-1.24-.52-1.25-.45-1.25-.46-1.3-.4-1.3-.39-1.3-.34-1.31-.34-1.36-.28-1.36-.23-1.36-.23-1.42-.22-1.42-.12-1.42-.17-1.41-.11-1.42-.06-1.48-.05-1.47v-2.95l.05-1.47.12-1.42.05-1.42.17-1.36.17-1.41.23-1.36.23-1.37.22-1.36.34-1.3.29-1.36.79-2.6.4-1.26.45-1.24.51-1.3.51-1.2.57-1.24.57-1.2.62-1.19.68-1.19 1.36-2.26.74-1.14.79-1.13.8-1.08.79-1.08.9-1.07.86-1.02.96-1.02.9-1.02 1.03-.97.96-1.02 1.02-.9 1.02-.91 1.08-.91 1.08-.85 1.07-.8 1.08-.79 1.13-.73 1.14-.74 1.13-.74 1.2-.62 1.13-.68 1.19-.57 1.24-.57 1.2-.56 1.24-.51 1.25-.46 1.3-.5 1.25-.46 1.3-.34 1.3-.4 1.31-.28 1.36-.34 1.36-.23 1.36-.23 1.36-.22 1.37-.17 1.41-.12 1.42-.1 1.42-.07 1.41-.05h38.78v18.76h-40.87l-1.2.06-1.13.06-1.13.05-1.08.17-1.13.17-1.08.17-1.08.23-1.07.28-1.02.34-1.08.34-1.02.4-1.02.4-.97.45-1.02.51-.96.51-1.02.57-.9.62-.91.63Zm95.58 62.02.57.96.62.97.62.9.68.8.63.73.68.68.73.63.74.56.74.51.8.46.79.4.85.33.9.29.91.28.96.17 1.03.12 1.07.1 1.08.07 1.13-.06 1.14-.06 2.04-.34.96-.22.97-.29.9-.34.85-.34 1.7-.9.8-.57.8-.57.73-.62.74-.68.73-.8.74-.79.62-.85.63-.9.62-.92 1.02-1.92.45-1.08.4-1.08.4-1.13.34-1.2.28-1.18.28-1.25.18-1.36.17-1.36.1-1.42.07-1.42.05-1.58V69.95h18.31v70.64l.12 1.7.11 1.65.17 1.59.17 1.47.23 1.47.34 1.36.28 1.3.4 1.31.4 1.2.45 1.13.45 1.02.51 1.02.57.96.62.9.57.86.68.8.68.73.74.68.73.68.74.57.8.5.85.46.85.45.9.4.91.34.96.29 1.02.22 1.08.17 1.14.17 1.13.06 1.19.06.85-.06.85-.06.8-.11.79-.17.85-.23 1.59-.57.85-.4.79-.39.8-.45.84-.57.8-.57 1.7-1.36.8-.73.84-.85.8-.85.73-.86.68-.85.63-.85.56-.9.51-.85.91-1.7.34-.91.28-.85.29-.85.17-.91.17-.9.11-.91.12-.91V69.95h18.7V144l-.05 2.04-.12 2.1-.22 1.98-.34 1.98-.4 1.99-.51 1.92-.62 1.87-.68 1.82-.8 1.81-.9 1.76-.97 1.7-1.08 1.65-1.13 1.58-1.25 1.53-1.3 1.48-1.42 1.47-2.95 2.61-1.53 1.19-1.53 1.08-1.59 1.02-1.58.96-1.65.85-1.64.74-1.7.68-1.76.57-1.7.5-1.81.4-1.76.34-1.82.17-1.87.17-1.81.06-2.6-.11-2.5-.23-1.25-.17-1.19-.23-1.25-.28-1.19-.28-1.19-.34-1.13-.4-1.14-.45-1.13-.46-1.13-.5-1.08-.57-1.08-.57-1.08-.63-1.02-.68-1.02-.68-.96-.73-.96-.74-.91-.8-.9-.79-.86-.85-.85-.85-.85-.9-.8-.97-.28-.4-.4.46-.73.96-.85.9-.85.92-.9.85-.92.85-.96.79-.96.74-1.02.73-1.08.68-1.02.68-1.14.57-1.07.57-1.14.57-1.13.5-1.13.46-1.2.4-1.13.34-1.25.34-1.19.34-1.19.22-1.24.23-1.25.17-1.25.11-1.25.12-2.6.11-2.16-.06-2.15-.17-2.1-.22-2.1-.4-1.98-.45-1.93-.57-1.93-.68-1.81-.8-1.76-.9-1.76-.97-1.64-1.13-1.53-1.19-1.53-1.36-1.42-1.42-1.36-1.53-1.3-1.59-1.08-1.53-1.02-1.58-.97-1.7-.85-1.7-.79-1.76-.74-1.82-.68-1.81-.56-1.93-.51-1.98-.46-1.99-.34-2.04-.34-2.1-.22-2.15-.17-2.21-.12-2.21V69.95h18.48v69l.06 1.59.06 1.53.11 1.47.11 1.48.23 1.36.23 1.36.28 1.36.28 1.24.34 1.25.4 1.2.46 1.13.45 1.13.51 1.02.51 1.08Zm121.89 82.94V69.95h36.57l1.64.06h1.59l1.58.11 1.54.06 1.58.17 1.53.17 1.48.17 1.53.23 1.47.28 1.42.28 1.42.35 1.41.34 1.42.4 1.36.39 1.36.45 1.36.51 1.3.51 1.31.57 1.25.57 1.3.56 1.2.68 1.24.63 1.2.73 1.12.74 1.2.74 1.13.8 1.08.84 1.07.85 1.08.91 1.02.9 1.02.97 1.02.96.91.97 1.7 1.93.85 1.02.8 1.02.79 1.07.73 1.02.69 1.14.68 1.08.68 1.13.62 1.13.62 1.2.57 1.18.51 1.2.51 1.19.45 1.24.46 1.25.45 1.25.4 1.3.68 2.61.57 2.72.22 1.36.23 1.36.17 1.42.17 1.36.11 1.47.12 1.42.05 1.48.06 1.47v2.95l-.06 1.41-.05 1.42-.12 1.42-.11 1.42-.17 1.36-.45 2.72-.29 1.36-.28 1.3-.34 1.36-.34 1.3-.4 1.31-.4 1.25-.45 1.25-.51 1.3-.51 1.19-.51 1.25-.57 1.19-.62 1.19-.62 1.19-.68 1.13-.74 1.14-.68 1.13-.8 1.13-.79 1.08-.8 1.08-.84 1.08-.91 1.02-.9 1.02-.91 1.02-.97 1.02-1.02.96-1.02.91-1.02.9-1.02.91-1.08.85-1.07.8-1.08.8-1.08.78-1.13.74-1.14.68-1.19.68-1.13.63-1.2.62-1.18.57-1.25.5-1.19.52-1.3.5-1.25.46-1.25.4-1.3.4-2.61.67-1.36.29-1.3.28-1.37.23-1.36.17-1.41.17-1.42.11-1.36.12-1.42.1-1.47.07h-22.06v59.41H668.3Zm17.74-77.78h21.83l1.13-.06 1.03-.11 1.07-.06 1.02-.11 1.02-.17 1.02-.12.97-.17 1.02-.22.9-.23.97-.23.9-.22.91-.29.91-.28.85-.34.85-.28.85-.4.85-.34.8-.4.79-.4.8-.45.79-.45.73-.46.74-.45.74-.51.68-.57.73-.5.69-.57.68-.57.62-.62.68-.63.62-.62.57-.68.62-.68.57-.68.57-.68.5-.68.52-.68.5-.74.46-.74.46-.73.4-.74.39-.8.4-.73.34-.8.4-.79.28-.8.34-.84.28-.8.28-.85.23-.85.23-.9.22-.86.17-.9.17-.91.17-.96.12-.91.11-.96.11-.97.06-1.02.06-1.02.05-.96v-2.1l-.05-1.08-.06-1.02-.06-1.02-.11-.96-.11-1.02-.12-.97-.17-.96-.17-.9-.22-.97-.23-.9-.23-.92-.22-.9-.29-.85-.34-.85-.28-.85-.34-.85-.4-.85-.4-.8-.4-.85-.39-.8-.45-.73-.46-.8-.5-.79-.52-.73-.5-.74-.57-.74-.57-.73-.57-.68-.62-.74-.62-.68-1.36-1.36-.68-.63-.69-.62-.73-.57-.74-.62-.74-.51-.73-.57-.8-.5-.79-.52-.8-.45-.84-.46-.8-.4-.85-.45-.9-.4-.86-.33-.9-.34-.97-.34-.9-.34-.97-.29-.96-.22-1.02-.29-1.02-.22-1.02-.17-1.02-.23-1.08-.17-1.08-.11-1.13-.12-1.14-.11-1.13-.06-1.13-.05-1.2-.06h-18.82v74.78Zm88.84 18.76V18.31h17.92v162.76h-17.92ZM881.23 73.3l1.59.74 3.06 1.58 1.47.91 1.42 1.02 1.36 1.02 1.36 1.14 1.36 1.19 1.19 1.3 1.19 1.36 1.08 1.36 1.02 1.48.9 1.53.8 1.58.74 1.59.68 1.7.56 1.7.46 1.82.4 1.81.28 1.81.34 3.86v77.67H843.8l-1.81-.17-1.82-.23-1.76-.34-1.7-.45-1.7-.51-1.64-.68-1.65-.74-1.58-.8-1.53-.96-1.53-1.02-1.42-1.13-1.42-1.2-1.36-1.3-1.3-1.36-1.3-1.47-1.2-1.53-1.13-1.59-1.02-1.59-1.02-1.64-.91-1.7-.8-1.76-.73-1.76-.68-1.81-.62-1.87-.46-1.87-.45-1.93-.34-1.98-.28-1.99-.18-2.04-.1-2.04-.07-2.1.06-2.04.11-2.04.29-1.98.34-1.93.45-1.93.57-1.87.62-1.81.8-1.76.85-1.76.96-1.7 1.02-1.59 1.13-1.58 1.25-1.53 1.36-1.48 1.42-1.36 1.53-1.36 1.53-1.3 1.65-1.2 1.64-1.07 1.7-1.02 1.7-.97 1.82-.85 1.81-.79 1.87-.68 1.93-.62 1.93-.51 1.98-.46 1.98-.4 2.05-.28 2.1-.17 2.09-.11 2.15-.06h31.13l-.17-.8-.23-.79-.28-.73-.28-.74-.34-.68-.35-.74-.4-.68-.45-.68-.45-.62-.51-.62-.57-.63-.56-.62-.57-.57-.62-.5-.63-.46-.56-.4-.63-.4-.68-.34-.62-.34-.68-.28-.68-.23-.68-.17-.74-.17-.74-.17-.73-.05-.8-.06-.85-.06h-50.45V70.41h48.52l1.88.11 1.81.17 1.76.28 1.7.29 1.76.4 1.64.45 1.64.57 1.65.62Zm3.34 47.56h-35.49l-1.07.12-1.08.11-1.08.17-1.02.23-1.02.28-.96.34-1.02.34-.97.46-.9.45-.97.51-.9.57-.91.68-.91.68-.9.73-.91.8-.8.8-.8.84-.73.85-.62.85-.63.91-.5.85-.52.9-.4.91-.39.97-.34.96-.28.97-.23 1.02-.17 1.02-.11 1.02-.06 1.13-.06 1.13.06 1.25.06 1.2.11 1.18.17 1.14.17 1.07.28 1.02.29 1.02.34.97.34.9.45.91.45.85.46.85.56.8.57.73.68.74.68.74.68.68.74.62.8.57.84.57.91.5.96.46 1.03.4 1.07.4 1.14.33 1.24.34 1.25.29 1.3.17 1.42.17 1.48.17 1.47.05h34.75v-42.69Zm117.13-32.93h-58.79l-.96.05-.85.12-.8.17-.8.22-.67.29-.68.34-.68.4-.63.5-.56.46-.4.45-.34.51-.23.51-.22.57-.17.62-.12.74-.05.85.05 1.08.12.9.17.74.17.51.17.4.22.22.17.23.29.23.11.05.23.12.34.11.4.11.5.17.57.12.62.11.74.11.8.12.79.11.96.06.97.11 1.02.06h1.07l1.2.06h24.15l2.04.05 2.1.12 2.04.22 1.98.29 1.93.4 1.92.45 1.93.56 1.82.68 1.81.74 1.7.85 1.7.9 1.7 1.03 1.59 1.08 1.53 1.19 1.53 1.3 1.42 1.36 1.42 1.42 1.24 1.47 1.25 1.53 1.13 1.53 1.03 1.65.96 1.64.85 1.76.74 1.76.68 1.81.62 1.81.45 1.93.46 1.87.28 1.99.23 1.98.11 2.04.06 2.04-.06 2.16-.11 2.04-.23 2.04-.34 2.04-.4 1.98-.5 1.93-.57 1.93-.68 1.87-.8 1.87-.85 1.76-.96 1.76-1.08 1.7-1.13 1.64-1.2 1.65-1.3 1.53-1.41 1.53-1.42 1.47-1.48 1.36-1.53 1.25-1.58 1.19-1.6 1.08-1.64 1.02-1.7.9-1.7.8-1.75.73-1.76.63-1.82.5-1.87.46-1.87.34-1.93.23-1.92.17h-56.81v-18.71h56.24l1.08-.06.96-.05 1.02-.12.97-.17.9-.22.91-.29.9-.28.86-.4.85-.4.85-.45.85-.5.8-.57.79-.63.79-.68.8-.74.79-.79.73-.85.68-.85.63-.85.56-.85.51-.9.52-.91.45-.91.4-.9.34-.97.28-.97.23-.96.22-1.02.17-1.02.12-1.08.05-1.08.06-1.13-.06-1.13-.05-1.14-.12-1.13-.17-1.02-.22-1.08-.29-1.02-.28-.96-.8-1.93-.45-.9-.5-.91-.58-.91-.62-.85-1.36-1.7-.8-.85-.79-.8-.85-.73-.85-.68-.85-.63-.9-.56-.91-.52-.91-.5-.96-.4-.97-.4-.96-.28-1.02-.29-1.08-.22-1.08-.17-1.07-.17-1.14-.06h-32.48l-1.14-.06-1.19-.05-1.13-.17-1.08-.23-1.13-.28-1.08-.29-1.08-.4-2.04-1.01-1.02-.57-.96-.62-.9-.68-.91-.8-.86-.8-.85-.84-.79-.91-.74-.9-1.36-1.93-.62-1.02-.57-1.08-.5-1.08-.46-1.08-.8-2.26-.28-1.14-.28-1.19-.23-1.19-.17-1.25-.11-1.19-.06-1.24-.06-1.3.06-1.2.06-1.25.17-1.19.22-1.19.29-1.19.34-1.19.4-1.13.45-1.08.51-1.08.62-1.07.63-1.02.68-.97 1.58-1.93.85-.85.91-.9.9-.8.97-.79 1.02-.68 1.02-.74 1.02-.62 1.08-.57 1.08-.5 1.13-.46 1.14-.4 1.19-.34 1.13-.28 1.25-.29 1.19-.17 1.25-.11 1.24-.11h59.7v18.37Zm18.09 54.93V18.31h18.3v52.5H1072V89.8h-33.9v53l.05 1.42v1.25l.06 1.25.11 1.24.12 1.14.11 1.07.17 1.08.34 1.93.23.85.22.85.29.8.22.73.29.68.28.62.34.57.4.74.45.62.51.63.46.5.56.52.51.45.63.4.62.4.68.28.68.34.8.22.84.23.86.17.96.11 1.02.06 1.13.06h19.17v17.46h-22.45l-2.84-.23-1.42-.22-1.36-.29-1.36-.34-1.3-.4-1.36-.5-1.25-.52-1.3-.62-1.25-.62-1.2-.74-1.24-.74-1.13-.85-1.14-.9-1.13-.97-.74-.68-.68-.68-.62-.74-.62-.73-.57-.74-.57-.8-.51-.84-.51-.85-.45-.85-.46-.91-.4-.9-.39-.92-.34-.96-.34-1.02-.28-.96-.29-1.02-.22-1.02-.23-1.03-.17-1.02-.23-1.07-.34-2.16-.11-1.13-.11-1.13-.12-1.14-.11-1.19-.11-1.19-.06-1.19-.06-1.25v-1.24l-.05-1.3Z"/>
</svg>